# xmcd CD database file
#
# Track frame offsets:
#	150
#	18920
#	34142
#	57142
#	74612
#	83635
#	108090
#	134440
#	149042
#	165757
#	189647
#
# Disc length: 2646 seconds
#
# Revision: 4
# Processed by: cddbd v1.4PL0 Copyright (c) Steve Scherf et al.
# Submitted via: CDex 1.50beta10
#
DISCID=910a540b
DTITLE=Radio Kings - Money Road
DYEAR=1998
DGENRE=Blues
TTITLE0=I Can't Win
TTITLE1=Virginia
TTITLE2=The Shelf
TTITLE3=Leave A Light On
TTITLE4=Thirty Days
TTITLE5=Money In Her Pocket
TTITLE6=My Day Of Reckoning (Has Finally Come)
TTITLE7=Song Of Love
TTITLE8=Disturb Me Baby
TTITLE9=I Can't Let Go
TTITLE10=Money Road
EXTD=©1998 Rounder Records Corp. YEAR: 1998
EXTT0=
EXTT1=
EXTT2=
EXTT3=
EXTT4=
EXTT5=
EXTT6=
EXTT7=
EXTT8=
EXTT9=
EXTT10=
PLAYORDER=
